<svg t="1649323856395" class="icon" viewBox="0 0 1024 1024" version="1.1" xmlns="http://www.w3.org/2000/svg" p-id="4647" width="200" height="200"><path d="M885.19111111 2.27555555H138.80888889c-75.43466667 0-136.53333333 61.09866667-136.53333334 136.53333334v746.38222222c0 75.43466667 61.09866667 136.53333333 136.53333334 136.53333334h746.38222222c75.43466667 0 136.53333333-61.09866667 136.53333334-136.53333334V138.80888889c0-75.43466667-61.09866667-136.53333333-136.53333334-136.53333334zM617.58577778 649.89866667c-16.27022222 2.95822222-32.99555555-1.36533333-45.85244445-11.94666667L410.51022222 506.42488889c-18.432 43.23555555-37.77422222 77.824-56.54755555 111.50222222l-1.024 1.93422222c-25.94133333 45.96622222-52.79288889 93.52533333-81.35111112 168.73244445-5.34755555 14.44977778-15.81511111 25.82755555-29.696 32.31288889-7.50933333 3.52711111-15.58755555 5.23377778-23.66577777 5.23377778-6.59911111 0-13.19822222-1.13777778-19.56977778-3.52711112l-24.91733333-9.10222222c-28.672-11.15022222-42.66666667-38.57066667-33.33688889-64.96711111l0.11377777-0.34133333C175.21777778 655.01866667 208.21333333 596.53688889 234.72355555 549.54666667l1.93422223-3.52711112c18.09066667-32.65422222 33.90577778-61.32622222 48.35555555-95.6871111l-13.19822222-4.89244445c-29.696-10.69511111-45.056-44.032-34.13333333-74.18311111l48.24177777-134.94044444c5.12-14.56355555 15.47377778-26.28266667 29.2408889-32.768 13.76711111-6.59911111 29.46844445-7.28177778 44.032-2.048l0.22755555 0.11377777 96.256 35.61244445c12.62933333 4.89244445 26.624 7.62311111 41.52888889 7.96444444l212.76444444 5.00622222c16.49777778 0.45511111 31.97155555 8.07822222 42.55288889 20.82133334 10.69511111 12.97066667 15.24622222 30.03733333 12.51555556 46.76266666-8.192 52.90666667-21.73155555 105.92711111-40.16355556 157.58222222-17.97688889 50.63111111-40.84622222 100.01066667-67.92533333 146.77333334-8.53333333 14.67733333-22.86933333 24.80355555-39.36711111 27.76177778z m195.01511111 162.01955555c-4.43733333 4.89244445-10.58133333 7.28177778-16.72533334 7.28177778-5.46133333 0-11.03644445-2.048-15.36-6.03022222l-108.544-100.01066667c-9.216-8.53333333-9.78488889-22.86933333-1.36533333-32.19911111 8.53333333-9.216 22.86933333-9.78488889 32.19911111-1.36533333l108.544 100.01066666c9.216 8.64711111 9.78488889 22.98311111 1.25155556 32.31288889z m51.65511111-186.82311111l-103.53777778 2.84444444h-0.68266667c-12.288 0-22.41422222-9.78488889-22.75555555-22.18666666-0.34133333-12.51555555 9.55733333-22.98311111 22.07288889-23.32444444l103.53777778-2.84444445c12.51555555-0.34133333 22.98311111 9.55733333 23.32444444 22.07288889 0.56888889 12.62933333-9.32977778 23.09688889-21.95911111 23.43822222z" p-id="4648"></path><path d="M661.27644445 341.33333333l-25.1448889-3.98222222c-7.05422222-1.024-13.53955555 3.98222222-14.56355555 11.03644444-4.89244445 27.53422222-11.94666667 54.72711111-21.504 81.23733334-9.55733333 26.624-21.04888889 52.224-35.15733333 76.34488889-2.95822222 6.48533333-1.47911111 14.10844445 4.55111111 18.09066667l22.07288889 14.10844444c6.03022222 3.98222222 14.56355555 2.048 18.09066666-4.55111111 15.58755555-27.07911111 28.55822222-55.75111111 39.13955556-85.33333333 10.58133333-29.58222222 18.09066667-60.18844445 23.552-91.36355556 1.47911111-7.50933333-3.98222222-14.56355555-11.03644444-15.58755556z" p-id="4649"></path></svg>