<svg t="1625648097038" class="icon" viewBox="0 0 1224 1024" version="1.1" xmlns="http://www.w3.org/2000/svg" p-id="36974" width="200" height="200"><path d="M1166.44271 403.712526c37.848049-23.129363 42.053388-44.156057 42.053389-79.901438V128.262834c0-60.977413-52.566735-113.544148-113.544148-113.544148H115.108008c-60.977413 0-113.544148 52.566735-113.544148 113.544148v195.548254c0 31.540041 4.205339 58.874743 42.053388 79.901438 27.334702 14.718686 90.414784 48.361396 90.414785 117.749486 0 75.696099-44.156057 100.928131-86.209446 113.544148h-4.205339c-37.848049 23.129363-42.053388 60.977413-42.053388 79.901438v195.548254c0 60.977413 52.566735 113.544148 113.544148 113.544148h977.741273c60.977413 0 113.544148-52.566735 113.544148-113.544148V714.907598c0-37.848049-14.718686-52.566735-42.053388-75.696099-67.285421-35.74538-88.312115-63.080082-88.312115-117.749487 0-52.566735 21.026694-79.901437 90.414784-117.749486z m-378.480492 166.110883c21.026694 0 37.848049 16.821355 37.848049 37.848049s-16.821355 37.848049-37.848049 37.848049h-145.084189v145.084189c0 21.026694-16.821355 37.848049-37.84805 37.848049s-37.848049-16.821355-37.848049-37.848049v-145.084189h-145.084189c-21.026694 0-37.848049-16.821355-37.848049-37.848049s16.821355-37.848049 37.848049-37.848049h145.084189v-90.414785h-155.597536c-21.026694 0-37.848049-16.821355-37.848049-37.848049s16.821355-37.848049 37.848049-37.848049h113.544148l-119.852156-119.852156c-14.718686-14.718686-14.718686-37.848049 0-52.566736s37.848049-14.718686 52.566735 0l147.186858 147.186859 147.186859-147.186859c14.718686-14.718686 37.848049-14.718686 52.566735 0s14.718686 37.848049 0 52.566736l-119.852156 119.852156h109.338809c21.026694 0 37.848049 16.821355 37.848049 37.848049s-16.821355 37.848049-37.848049 37.848049h-155.597536v90.414785h149.289528z" p-id="36975"></path></svg>