<svg t="1625648191383" class="icon" viewBox="0 0 1024 1024" version="1.1" xmlns="http://www.w3.org/2000/svg" p-id="2331" width="200" height="200"><path d="M161.31026678 311.60586655C78.14670233 311.60586655 11.01466698 244.47383238 11.01466698 161.31026678S78.14670233 11.01466698 161.31026678 11.01466698 311.60586655 78.14670233 311.60586655 161.31026678 244.47383238 311.60586655 161.31026678 311.60586655z m701.37946644 0C779.52616762 311.60586655 712.39413345 244.47383238 712.39413345 161.31026678S779.52616762 11.01466698 862.68973322 11.01466698 1012.98533302 78.14670233 1012.98533302 161.31026678 945.85329767 311.60586655 862.68973322 311.60586655z m0 701.37946647c-83.16356561 0-150.29559978-67.13203418-150.29559977-150.2955998s67.13203418-150.29559978 150.29559977-150.29559977 150.29559978 67.13203418 150.2955998 150.29559977-67.13203418 150.29559978-150.2955998 150.2955998z m-701.37946644 0C78.14670233 1012.98533302 11.01466698 945.85329767 11.01466698 862.68973322S78.14670233 712.39413345 161.31026678 712.39413345s150.29559978 67.13203418 150.29559977 150.29559977S244.47383238 1012.98533302 161.31026678 1012.98533302z m200.39413344-901.77359872h300.59119956v100.19706613h-300.59119956V111.2117343z m0 701.37946527h300.59119956v100.19706613h-300.59119956v-100.19706613zM111.2117343 361.70440022h100.19706613v300.59119956H111.2117343v-300.59119956z m701.37946527 0h100.19706613v300.59119956h-100.19706613v-300.59119956z" p-id="2332"></path></svg>