<svg t="1649323640965" class="icon" viewBox="0 0 1024 1024" version="1.1" xmlns="http://www.w3.org/2000/svg" p-id="5161" width="200" height="200"><path d="M891.4944 0C961.8432 0 1018.88 57.0368 1018.88 127.3856v764.1088c0 70.3488-57.0368 127.3856-127.3856 127.3856H127.3856A127.3856 127.3856 0 0 1 0 891.4944V127.3856C0 57.0368 57.0368 0 127.3856 0h764.1088z m-63.5904 191.0784h-636.928v636.8256h636.928v-636.928z m-79.9744 77.6192v481.5872H271.0528V268.6976h476.8768z m-97.0752 17.92h-79.872v56.1152H310.8864v77.6192h180.736L299.2128 628.736l59.1872 51.8144 212.48-229.376v195.584h-63.6928v76.8h143.6672V420.4544H716.8v-77.6192h-65.9456v-56.1152z" p-id="5162"></path></svg>