<svg t="1625710690320" class="icon" viewBox="0 0 1024 1024" version="1.1" xmlns="http://www.w3.org/2000/svg" p-id="6345" width="200" height="200"><path d="M308.266667 501.33333367L712.149333 10.66666667l-90.282666 381.610667L778.666667 501.33333367 256 991.99999967l209.066667-436.181333L308.266667 501.33333367z m423.253333-387.242667c145.92 81.706667 244.693333 237.568 244.693333 416.725333 0 263.68-213.76 477.44-477.44 477.44-58.325333 0-113.92-11.008-165.632-30.165333l109.482667-102.826667c18.346667 2.986667 36.992 4.992 56.149333 4.992 192.682667 0 349.44-156.8 349.44-349.44a349.013333 349.013333 0 0 0-147.84-285.013333l31.146667-131.712zM149.333333 530.77333367c0 116.266667 57.301333 219.178667 144.896 282.709333L238.165333 930.55999967C107.690667 845.31199967 21.333333 698.19733367 21.333333 530.77333367 21.333333 267.09333367 235.093333 53.33333367 498.773333 53.33333367c38.528 0 75.776 5.034667 111.701334 13.653333l-94.805334 115.2c-5.632-0.298667-11.178667-0.853333-16.896-0.853333C306.090667 181.33333367 149.333333 338.09066667 149.333333 530.77333367z" p-id="6346"></path></svg>